<svg width="50" height="50" viewBox="0 0 50 50" fill="none" xmlns="http://www.w3.org/2000/svg">
<g clip-path="url(#clip0)">
<path d="M36.1328 38.5195H35.8828V38.7695V40.7227C35.8828 41.6634 35.1204 42.4258 34.1797 42.4258C33.239 42.4258 32.4766 41.6634 32.4766 40.7227V38.7695V38.5195H32.2266H30.2734C29.3327 38.5195 28.5703 37.7571 28.5703 36.8164C28.5703 35.8757 29.3327 35.1133 30.2734 35.1133H32.2266H32.4766V34.8633V32.9102C32.4766 31.9694 33.239 31.207 34.1797 31.207C35.1204 31.207 35.8828 31.9694 35.8828 32.9102V34.8633V35.1133H36.1328H38.0859C39.0267 35.1133 39.7891 35.8757 39.7891 36.8164C39.7891 37.7571 39.0267 38.5195 38.0859 38.5195H36.1328ZM5.02794 8.94446L5.02795 8.94445L11.4774 2.43735C11.4775 2.43735 11.4775 2.43734 11.4775 2.43734C12.8549 1.04771 14.7685 0.25 16.7255 0.25H34.462C38.6315 0.25 42.0245 3.64264 42.0245 7.8125V18.1641C42.0245 19.1048 41.2617 19.8672 40.3214 19.8672C39.3806 19.8672 38.6182 19.1048 38.6182 18.1641V7.8125C38.6182 5.52065 36.7538 3.65625 34.462 3.65625H16.7255C15.6701 3.65625 14.6395 4.0857 13.8968 4.83537C13.8968 4.83539 13.8967 4.8354 13.8967 4.83541L7.4473 11.3421C7.11094 11.6813 6.84342 12.0712 6.65079 12.494L6.48963 12.8477H6.87828H12.3047C14.0583 12.8477 15.4844 11.4212 15.4844 9.66797C15.4844 8.72724 16.2468 7.96484 17.1875 7.96484C18.1282 7.96484 18.8906 8.72724 18.8906 9.66797C18.8906 13.2992 15.9359 16.2539 12.3047 16.2539H6.54297H6.29297V16.5039V42.1875C6.29297 44.4794 8.15737 46.3438 10.4492 46.3438H18.2617C19.2024 46.3438 19.9648 47.1062 19.9648 48.0469C19.9648 48.9876 19.2024 49.75 18.2617 49.75H10.4492C6.27935 49.75 2.88672 46.3574 2.88672 42.1875V14.146C2.88672 12.1841 3.64688 10.3377 5.02794 8.94446ZM21.2461 36.8164C21.2461 29.6852 27.0485 23.8828 34.1797 23.8828C41.3109 23.8828 47.1133 29.6852 47.1133 36.8164C47.1133 43.9476 41.3109 49.75 34.1797 49.75C27.0485 49.75 21.2461 43.9476 21.2461 36.8164ZM24.6523 36.8164C24.6523 42.07 28.9261 46.3438 34.1797 46.3438C39.4333 46.3438 43.707 42.07 43.707 36.8164C43.707 31.5628 39.4333 27.2891 34.1797 27.2891C28.9261 27.2891 24.6523 31.5628 24.6523 36.8164Z" fill="#EBE7FF" stroke="white" stroke-width="0.5"/>
</g>
<defs>
<clipPath id="clip0">
<rect width="50" height="50" fill="white"/>
</clipPath>
</defs>
</svg>
