<svg width="50" height="50" viewBox="0 0 50 50" fill="none" xmlns="http://www.w3.org/2000/svg">
<path d="M23.3835 32.6172V32.3672H23.1335H18.2507C17.3103 32.3672 16.5475 31.6048 16.5475 30.6641C16.5475 29.7234 17.3103 28.9609 18.2507 28.9609H23.1335H23.3835V28.7109V23.8281C23.3835 22.8874 24.1462 22.125 25.0866 22.125C26.0273 22.125 26.7897 22.8874 26.7897 23.8281V28.7109V28.9609H27.0397H31.9225C32.8633 28.9609 33.6257 29.7233 33.6257 30.6641C33.6257 31.6048 32.8633 32.3672 31.9225 32.3672H27.0397H26.7897V32.6172V37.5C26.7897 38.4407 26.0273 39.2031 25.0866 39.2031C24.1462 39.2031 23.3835 38.4407 23.3835 37.5V32.6172ZM30.8483 8.53906H30.5983V8.78906V9.76562C30.5983 12.8586 28.0819 15.375 24.9889 15.375C21.8963 15.375 19.3796 12.8586 19.3796 9.76562V8.78906V8.53906H19.1296H12.9883C10.696 8.53906 8.83203 10.4035 8.83203 12.6953V42.1875C8.83203 44.4793 10.696 46.3438 12.9883 46.3438H37.0007C39.2929 46.3438 41.1569 44.4793 41.1569 42.1875C41.1569 41.2468 41.9197 40.4844 42.86 40.4844C43.8008 40.4844 44.5632 41.2468 44.5632 42.1875C44.5632 46.3574 41.1705 49.75 37.0007 49.75H12.9883C8.81841 49.75 5.42578 46.3574 5.42578 42.1875V12.6953C5.42578 8.52545 8.81841 5.13281 12.9883 5.13281H19.1299H19.3799V4.88281V1.95312C19.3799 1.0124 20.1423 0.25 21.0831 0.25H28.8956C29.8359 0.25 30.5987 1.01243 30.5987 1.95312V4.88281V5.13281H30.8487H37.001C41.1705 5.13281 44.5635 8.52545 44.5635 12.6953V32.5195C44.5635 33.4602 43.8008 34.2227 42.8604 34.2227C41.9196 34.2227 41.1569 33.4602 41.1569 32.5195V12.6953C41.1569 10.4035 39.2929 8.53906 37.0007 8.53906H30.8483ZM27.1921 3.90625V3.65625H26.9421H23.0358H22.7858V3.90625V9.76562C22.7858 10.9806 23.774 11.9688 24.9889 11.9688C26.2039 11.9688 27.1921 10.9806 27.1921 9.76562V3.90625Z" fill="white" stroke="#50CAFF" stroke-width="0.5"/>
</svg>
